# xmcd CD database file
#
# Track frame offsets:
#	150
#	31182
#	57572
#	75650
#	95136
#	128457
#	160463
#	180748
#	224293
#	257238
#	273168
#	296835
#	316305
#
# Disc length: 4804 seconds
#
# Revision: 1
# Processed by: cddbd v1.5.2PL0 Copyright (c) Steve Scherf et al.
# Submitted via: CDex 1.83
#
DISCID=be12c20d
DTITLE=Teddy Edwards - Complete Recordings 1947-1962 CD03
DYEAR=2017
DGENRE=Jazz
TTITLE0=Blues In G
TTITLE1=Scrapple From The Apple
TTITLE2=What's New
TTITLE3=You Name It
TTITLE4=Take The A Train
TTITLE5=The Sermon
TTITLE6=Higgin's Hideaway
TTITLE7=Together Again
TTITLE8=You Stepped Out Of A Dream
TTITLE9=Up There
TTITLE10=Perhaps
TTITLE11=Misty
TTITLE12=Sandy
EXTD=YEAR: 2017
EXTT0=
EXTT1=
EXTT2=
EXTT3=
EXTT4=
EXTT5=
EXTT6=
EXTT7=
EXTT8=
EXTT9=
EXTT10=
EXTT11=
EXTT12=
PLAYORDER=
